<?xml version="1.0" standalone="no"?>
<svg version="1.0" xmlns="http://www.w3.org/2000/svg"
 viewBox="300 -50 1200 1000"
 preserveAspectRatio="xMidYMid meet">
<g transform="translate(0.000000,768.000000) scale(0.100000,-0.100000)"
fill="#000000" stroke="none">
<path d="M9148 7196 c-71 -21 -126 -57 -194 -127 -106 -112 -140 -173 -616
-1119 -1169 -2320 -1283 -2541 -1296 -2523 -7 10 -43 74 -79 143 -36 69 -107
204 -158 300 -369 698 -569 1076 -745 1410 -418 794 -623 1176 -656 1221 -47
65 -98 97 -184 115 -62 13 -169 14 -699 12 -607 -3 -627 -4 -661 -23 -21 -12
-44 -39 -58 -65 l-22 -45 2 -2695 c3 -2655 3 -2695 23 -2727 41 -69 29 -68
635 -68 606 0 589 -2 627 68 17 30 18 131 23 1735 l5 1704 144 -279 c79 -153
340 -656 579 -1118 239 -462 501 -968 582 -1124 165 -319 203 -369 313 -422
93 -44 147 -51 360 -47 l193 3 76 38 c86 42 162 116 198 194 44 92 240 492
615 1253 207 421 399 813 427 873 28 59 54 107 58 107 4 0 8 -33 9 -72 4 -179
71 -979 87 -1030 4 -13 25 -18 112 -23 140 -10 1034 4 1048 16 13 11 28 136
49 418 58 766 45 1442 -51 2559 -7 81 -5 83 55 52 93 -47 133 -118 161 -288
44 -264 80 -790 83 -1213 l2 -256 -37 -54 c-53 -77 -68 -120 -68 -192 0 -150
80 -248 204 -251 66 -1 101 21 128 82 20 45 21 58 15 636 -5 556 -16 820 -48
1171 -26 293 -76 433 -194 543 -71 67 -151 112 -255 143 -73 22 -87 23 -652
27 l-578 3 0 64 c0 69 13 109 39 122 9 4 249 9 534 11 284 2 517 6 517 9 0 25
-55 267 -75 330 -32 101 -101 218 -166 283 -30 29 -84 66 -126 87 -64 32 -85
37 -156 40 -48 1 -102 -3 -129 -11z"/>
<path d="M8790 2650 c0 -44 47 -156 74 -179 22 -18 20 -58 -8 -183 -33 -143
-91 -315 -160 -471 -45 -102 -55 -131 -46 -147 5 -10 45 -63 87 -117 181 -232
321 -494 436 -818 39 -110 45 -121 77 -137 l35 -18 3 268 c2 147 0 367 -3 489
l-7 223 -34 20 c-103 64 -104 225 -1 289 91 56 214 19 253 -76 33 -77 -1 -186
-66 -213 l-30 -12 0 -489 c0 -268 3 -490 8 -493 4 -2 21 2 38 9 28 11 35 25
78 151 107 309 238 564 415 809 52 71 94 134 94 140 0 5 -23 58 -51 118 -80
167 -138 321 -172 450 -37 146 -38 185 -4 236 23 35 54 125 54 159 0 11 -98
13 -535 10 -467 -3 -535 -5 -535 -18z"/>
<path d="M10430 1171 c-93 -29 -177 -108 -206 -193 -24 -73 -16 -181 19 -240
60 -104 154 -158 270 -158 181 0 318 169 285 352 -14 73 -39 118 -98 172 -74
65 -184 93 -270 67z"/>
</g>
</svg>
